<svg xmlns="http://www.w3.org/2000/svg" xmlns:xlink="http://www.w3.org/1999/xlink" width="2000" zoomAndPan="magnify" viewBox="0 0 1500 1499.999933" height="2000" preserveAspectRatio="xMidYMid meet" version="1.0"><defs><g/><clipPath id="74ab1312ae"><path d="M 313.65625 473.570312 L 866.519531 473.570312 L 866.519531 1026.429688 L 313.65625 1026.429688 Z M 313.65625 473.570312 " clip-rule="nonzero"/></clipPath><clipPath id="225c08f598"><path d="M 590.085938 473.570312 C 437.417969 473.570312 313.65625 597.332031 313.65625 750 C 313.65625 902.667969 437.417969 1026.429688 590.085938 1026.429688 C 742.753906 1026.429688 866.519531 902.667969 866.519531 750 C 866.519531 597.332031 742.753906 473.570312 590.085938 473.570312 Z M 590.085938 473.570312 " clip-rule="nonzero"/></clipPath><clipPath id="2da7fa8914"><path d="M 0.65625 0.570312 L 553.519531 0.570312 L 553.519531 553.429688 L 0.65625 553.429688 Z M 0.65625 0.570312 " clip-rule="nonzero"/></clipPath><clipPath id="d798716f46"><path d="M 277.085938 0.570312 C 124.417969 0.570312 0.65625 124.332031 0.65625 277 C 0.65625 429.667969 124.417969 553.429688 277.085938 553.429688 C 429.753906 553.429688 553.519531 429.667969 553.519531 277 C 553.519531 124.332031 429.753906 0.570312 277.085938 0.570312 Z M 277.085938 0.570312 " clip-rule="nonzero"/></clipPath><clipPath id="4faa82dcfb"><rect x="0" width="554" y="0" height="554"/></clipPath><clipPath id="791d07499b"><path d="M 257 766 L 517 766 L 517 1005 L 257 1005 Z M 257 766 " clip-rule="nonzero"/></clipPath><clipPath id="58d2ba4a06"><path d="M 517.015625 766.800781 L 542.375 989.609375 L 265.910156 1021.078125 L 240.550781 798.265625 Z M 517.015625 766.800781 " clip-rule="nonzero"/></clipPath><clipPath id="6215c4d298"><path d="M 517.015625 766.800781 L 542.375 989.609375 L 265.910156 1021.078125 L 240.550781 798.265625 Z M 517.015625 766.800781 " clip-rule="nonzero"/></clipPath><clipPath id="9332912fc6"><path d="M 517.015625 766.800781 L 542.375 989.609375 L 265.910156 1021.078125 L 240.550781 798.265625 Z M 517.015625 766.800781 " clip-rule="nonzero"/></clipPath><clipPath id="4d348cb2a6"><path d="M 516.996094 766.800781 L 542.355469 989.632812 L 265.898438 1021.101562 L 240.539062 798.269531 Z M 516.996094 766.800781 " clip-rule="nonzero"/></clipPath></defs><g clip-path="url(#74ab1312ae)"><g clip-path="url(#225c08f598)"><g transform="matrix(1, 0, 0, 1, 313, 473)"><g clip-path="url(#4faa82dcfb)"><g clip-path="url(#2da7fa8914)"><g clip-path="url(#d798716f46)"><path fill="#9261bd" d="M 0.65625 0.570312 L 553.519531 0.570312 L 553.519531 553.429688 L 0.65625 553.429688 Z M 0.65625 0.570312 " fill-opacity="1" fill-rule="nonzero"/></g></g></g></g></g></g><g fill="#1d1d1b" fill-opacity="1"><g transform="translate(542.357555, 630.202942)"><g><path d="M 91.6875 -26.84375 L 39.734375 -26.84375 L 33.84375 0 L 3.71875 0 L 37.109375 -148.4375 L 94.296875 -148.4375 L 127.703125 0 L 97.578125 0 Z M 70.953125 -123.5625 L 60.46875 -123.5625 L 45.40625 -53.046875 L 86.015625 -53.046875 Z M 70.953125 -123.5625 "/></g></g></g><g fill="#1d1d1b" fill-opacity="1"><g transform="translate(673.770916, 630.202942)"><g><path d="M 13.53125 -109.140625 L 42.5625 -109.140625 L 42.5625 -103.03125 C 47.945312 -106.09375 52.640625 -108.3125 56.640625 -109.6875 C 60.648438 -111.070312 64.835938 -111.765625 69.203125 -111.765625 C 74.296875 -111.765625 79.207031 -110.925781 83.9375 -109.25 C 88.664062 -107.582031 92.554688 -105.003906 95.609375 -101.515625 C 102.453125 -105.003906 108.894531 -107.582031 114.9375 -109.25 C 120.976562 -110.925781 127.125 -111.765625 133.375 -111.765625 C 146.914062 -111.765625 156.519531 -107.613281 162.1875 -99.3125 C 167.863281 -91.019531 170.703125 -77.632812 170.703125 -59.15625 L 170.703125 0 L 141.453125 0 L 141.453125 -58.28125 C 141.453125 -68.03125 140.359375 -75.015625 138.171875 -79.234375 C 135.992188 -83.460938 131.921875 -85.578125 125.953125 -85.578125 C 121.734375 -85.578125 116.128906 -84.554688 109.140625 -82.515625 L 105.875 -81.421875 C 106.457031 -71.671875 106.75 -63.375 106.75 -56.53125 L 106.75 0 L 77.5 0 L 77.5 -56.109375 C 77.5 -63.960938 77.097656 -69.925781 76.296875 -74 C 75.492188 -78.070312 73.960938 -81.019531 71.703125 -82.84375 C 69.453125 -84.664062 66.070312 -85.578125 61.5625 -85.578125 C 56.90625 -85.578125 51.519531 -84.554688 45.40625 -82.515625 L 42.78125 -81.640625 L 42.78125 0 L 13.53125 0 Z M 13.53125 -109.140625 "/></g></g></g><g fill="#1d1d1b" fill-opacity="1"><g transform="translate(856.920083, 630.202942)"><g><path d="M 13.53125 -109.140625 L 42.5625 -109.140625 L 42.5625 -97.578125 C 55.082031 -104.859375 66.726562 -109.585938 77.5 -111.765625 L 77.5 -82.296875 C 66.582031 -80.109375 56.46875 -77.5625 47.15625 -74.65625 L 42.78125 -73.125 L 42.78125 0 L 13.53125 0 Z M 13.53125 -109.140625 "/></g></g></g><g fill="#1d1d1b" fill-opacity="1"><g transform="translate(542.357555, 841.702924)"><g><path d="M 46.28125 -122.25 L 46.28125 -87.53125 L 99.109375 -87.53125 L 99.109375 -61.78125 L 46.28125 -61.78125 L 46.28125 -26.203125 L 112.203125 -26.203125 L 112.203125 0 L 16.15625 0 L 16.15625 -148.4375 L 112.203125 -148.4375 L 112.203125 -122.25 Z M 46.28125 -122.25 "/></g></g></g><g fill="#1d1d1b" fill-opacity="1"><g transform="translate(663.292744, 841.702924)"><g><path d="M 14.84375 -152.8125 L 44.09375 -152.8125 L 44.09375 0 L 14.84375 0 Z M 14.84375 -152.8125 "/></g></g></g><g fill="#1d1d1b" fill-opacity="1"><g transform="translate(722.232272, 841.702924)"><g><path d="M 51.734375 2.625 C 42.128906 2.625 30.414062 1.3125 16.59375 -1.3125 L 9.609375 -2.625 L 10.484375 -27.0625 C 28.085938 -24.738281 40.894531 -23.578125 48.90625 -23.578125 C 54.28125 -23.578125 58.53125 -24.15625 61.65625 -25.3125 C 64.789062 -26.476562 66.359375 -28.664062 66.359375 -31.875 C 66.359375 -34.78125 64.863281 -36.890625 61.875 -38.203125 C 58.894531 -39.515625 53.914062 -40.75 46.9375 -41.90625 C 44.3125 -42.195312 42.488281 -42.488281 41.46875 -42.78125 C 34.195312 -44.09375 28.234375 -45.726562 23.578125 -47.6875 C 18.921875 -49.65625 15.132812 -52.785156 12.21875 -57.078125 C 9.3125 -61.378906 7.859375 -67.382812 7.859375 -75.09375 C 7.859375 -87.46875 11.640625 -96.632812 19.203125 -102.59375 C 26.773438 -108.5625 37.179688 -111.546875 50.421875 -111.546875 C 58.285156 -111.546875 69.859375 -110.164062 85.140625 -107.40625 L 92.34375 -106.09375 L 91.90625 -81.859375 C 74.289062 -84.191406 61.265625 -85.359375 52.828125 -85.359375 C 47.878906 -85.359375 43.984375 -84.847656 41.140625 -83.828125 C 38.304688 -82.804688 36.890625 -80.84375 36.890625 -77.9375 C 36.890625 -74.875 38.34375 -72.722656 41.25 -71.484375 C 44.164062 -70.253906 48.898438 -69.054688 55.453125 -67.890625 L 63.09375 -66.578125 C 74.726562 -64.253906 83.019531 -60.796875 87.96875 -56.203125 C 92.914062 -51.617188 95.390625 -44.234375 95.390625 -34.046875 C 95.390625 -21.535156 91.820312 -12.296875 84.6875 -6.328125 C 77.5625 -0.359375 66.578125 2.625 51.734375 2.625 Z M 51.734375 2.625 "/></g></g></g><g fill="#1d1d1b" fill-opacity="1"><g transform="translate(825.267335, 841.702924)"><g><path d="M 13.53125 -152.8125 L 42.78125 -152.8125 L 42.78125 -103.90625 C 48.3125 -106.675781 53.222656 -108.675781 57.515625 -109.90625 C 61.816406 -111.144531 66.441406 -111.765625 71.390625 -111.765625 C 84.773438 -111.765625 94.269531 -107.507812 99.875 -99 C 105.476562 -90.488281 108.28125 -77.207031 108.28125 -59.15625 L 108.28125 0 L 79.015625 0 L 79.015625 -58.5 C 79.015625 -68.394531 77.847656 -75.378906 75.515625 -79.453125 C 73.191406 -83.535156 68.6875 -85.578125 62 -85.578125 C 56.757812 -85.578125 51.300781 -84.703125 45.625 -82.953125 L 42.78125 -82.078125 L 42.78125 0 L 13.53125 0 Z M 13.53125 -152.8125 "/></g></g></g><g fill="#1d1d1b" fill-opacity="1"><g transform="translate(945.984229, 841.702924)"><g><path d="M 56.328125 2.625 C 39.296875 2.625 26.992188 -1.664062 19.421875 -10.25 C 11.859375 -18.84375 8.078125 -32.742188 8.078125 -51.953125 C 8.078125 -72.035156 12.039062 -87.023438 19.96875 -96.921875 C 27.90625 -106.816406 40.238281 -111.765625 56.96875 -111.765625 C 72.394531 -111.765625 84.070312 -107.648438 92 -99.421875 C 99.9375 -91.203125 103.90625 -78.875 103.90625 -62.4375 L 101.71875 -42.125 L 37.546875 -42.125 C 37.835938 -37.03125 38.742188 -33.132812 40.265625 -30.4375 C 41.796875 -27.75 44.269531 -25.859375 47.6875 -24.765625 C 51.113281 -23.679688 55.882812 -23.140625 62 -23.140625 C 66.800781 -23.140625 72.546875 -23.285156 79.234375 -23.578125 C 85.929688 -23.867188 90.8125 -24.160156 93.875 -24.453125 L 99.984375 -25.109375 L 100.421875 -3.5 C 83.972656 0.582031 69.273438 2.625 56.328125 2.625 Z M 75.09375 -64.390625 C 75.09375 -73.128906 73.742188 -79.207031 71.046875 -82.625 C 68.359375 -86.039062 63.59375 -87.75 56.75 -87.75 C 49.769531 -87.75 44.820312 -85.96875 41.90625 -82.40625 C 39 -78.84375 37.472656 -72.835938 37.328125 -64.390625 Z M 75.09375 -64.390625 "/></g></g></g><g fill="#1d1d1b" fill-opacity="1"><g transform="translate(1057.31445, 841.702924)"><g><path d="M 13.53125 -109.140625 L 42.5625 -109.140625 L 42.5625 -97.578125 C 55.082031 -104.859375 66.726562 -109.585938 77.5 -111.765625 L 77.5 -82.296875 C 66.582031 -80.109375 56.46875 -77.5625 47.15625 -74.65625 L 42.78125 -73.125 L 42.78125 0 L 13.53125 0 Z M 13.53125 -109.140625 "/></g></g></g><g fill="#1d1d1b" fill-opacity="1"><g transform="translate(1138.520025, 841.702924)"><g><path d="M 13.53125 0 Z M 13.53125 -109.140625 L 42.78125 -109.140625 L 42.78125 0 L 13.53125 0 Z M 13.53125 -152.59375 L 42.78125 -152.59375 L 42.78125 -123.125 L 13.53125 -123.125 Z M 13.53125 -152.59375 "/></g></g></g><g fill="#1d1d1b" fill-opacity="1"><g transform="translate(1194.840058, 841.702924)"><g><path d="M 18.78125 -84.265625 L 6.984375 -84.265625 L 6.984375 -109.140625 L 18.78125 -109.140625 L 18.78125 -113.953125 C 18.78125 -124.578125 19.796875 -132.867188 21.828125 -138.828125 C 23.867188 -144.796875 27.144531 -149.050781 31.65625 -151.59375 C 36.164062 -154.144531 42.492188 -155.421875 50.640625 -155.421875 L 75.53125 -153.46875 L 75.09375 -128.796875 L 56.96875 -129.671875 C 53.914062 -129.671875 51.660156 -128.101562 50.203125 -124.96875 C 48.753906 -121.84375 48.03125 -118.097656 48.03125 -113.734375 L 48.03125 -109.140625 L 74.4375 -109.140625 L 74.4375 -84.265625 L 48.03125 -84.265625 L 48.03125 0 L 18.78125 0 Z M 18.78125 -84.265625 "/></g></g></g><g clip-path="url(#791d07499b)"><g clip-path="url(#58d2ba4a06)"><g clip-path="url(#6215c4d298)"><g clip-path="url(#9332912fc6)"><g clip-path="url(#4d348cb2a6)"><path fill="#1d1d1b" d="M 415.523438 1004.074219 L 516.996094 766.800781 L 268.542969 825.992188 L 344.503906 878.996094 L 344.753906 879.289062 L 257.917969 950.980469 L 290.792969 990.84375 L 378.015625 918.828125 L 378.226562 919.074219 L 415.523438 1004.074219 " fill-opacity="1" fill-rule="nonzero"/></g></g></g></g></g></svg>